<svg xmlns="http://www.w3.org/2000/svg" width="7195" height="7087" viewBox="0 0 7195 7087" version="1.1">
	<path d="M 0.499 3544 C 0.499 5492.925, 0.612 6290.212, 0.750 5315.750 C 0.888 4341.287, 0.888 2746.712, 0.750 1772.250 C 0.612 797.787, 0.499 1595.075, 0.499 3544 M 2017.700 2558.086 C 1739.320 2574.021, 1482.051 2713.593, 1316.495 2938.500 C 1180.734 3122.930, 1117.624 3350.643, 1138.565 3580.500 C 1155.169 3762.747, 1226.915 3938.867, 1343.142 4082.686 C 1370.326 4116.323, 1409.143 4157.430, 1441 4186.316 C 1584.061 4316.035, 1761.592 4397.916, 1953 4422.460 C 1996.723 4428.066, 2040.102 4430.426, 2086.751 4429.734 C 2106.898 4429.435, 2120.885 4428.813, 2123.100 4428.118 C 2130.405 4425.826, 2130.051 4428.473, 2129.760 4378.410 L 2129.500 4333.500 2115.500 4334 C 2091.155 4334.869, 2035.143 4334.356, 2018 4333.106 C 1888.194 4323.643, 1766.326 4286.748, 1655 4223.208 C 1556.952 4167.247, 1468.186 4088.759, 1399.163 3996.994 C 1314.070 3883.864, 1258.157 3749.344, 1238.103 3609.500 C 1231.858 3565.950, 1229.633 3534.164, 1229.633 3488.500 C 1229.633 3442.868, 1231.852 3411.139, 1238.097 3367.500 C 1255.811 3243.703, 1301.646 3124.377, 1371.728 3019.605 C 1476.914 2862.353, 1630.679 2746.319, 1811.593 2687.672 C 1957.617 2640.337, 2117.697 2634.521, 2267.741 2671.100 C 2398.043 2702.867, 2517.391 2764.361, 2620.500 2852.859 C 2650.893 2878.944, 2694.859 2924.027, 2721.088 2956 C 2817.119 3073.061, 2879.955 3212.982, 2903.416 3362 C 2908.863 3396.598, 2911.295 3422.469, 2913.585 3470.181 L 2914.193 3482.862 2961.097 3482.681 L 3008 3482.500 3007.994 3479 C 3007.980 3469.966, 3005.834 3430.643, 3004.474 3414.500 C 2988.795 3228.425, 2917.138 3050.027, 2799.700 2904.686 C 2770.326 2868.334, 2727.922 2823.720, 2695 2794.533 C 2534.497 2652.234, 2334.807 2569.811, 2122 2558.026 C 2101.005 2556.863, 2038.437 2556.899, 2017.700 2558.086 M 3562.731 2834.032 C 3553.818 2835.094, 3550.094 2837.341, 3547.016 2843.517 C 3544.870 2847.824, 3544.533 2849.856, 3544.532 2858.500 C 3544.531 2864, 3545.095 2870.107, 3545.784 2872.072 C 3547.454 2876.831, 3552.578 2881.568, 3557.500 2882.903 C 3560.116 2883.613, 3578.190 2883.991, 3609.750 2883.994 L 3658 2884 3658 3014.451 C 3658 3107.987, 3658.321 3146.401, 3659.135 3150.201 C 3660.551 3156.811, 3665.570 3162.223, 3672.036 3164.111 C 3677.769 3165.785, 3695.372 3165.788, 3700.275 3164.116 C 3704.875 3162.547, 3709.575 3158.723, 3711.515 3154.971 C 3714.632 3148.943, 3714.984 3134.210, 3714.992 3009.250 L 3715 2884 3762.750 2883.994 C 3794.327 2883.991, 3811.839 2883.617, 3814.453 2882.891 C 3819.508 2881.488, 3824.488 2876.508, 3825.891 2871.453 C 3827.285 2866.434, 3827.314 2851.670, 3825.940 2846.723 C 3824.545 2841.701, 3819.696 2836.339, 3815.168 2834.811 C 3812.345 2833.859, 3783.623 2833.533, 3690.500 2833.399 C 3623.950 2833.304, 3566.454 2833.588, 3562.731 2834.032 M 3905.127 2835.498 C 3900.340 2836.991, 3895.745 2840.832, 3893.161 2845.500 C 3891.638 2848.252, 3891.478 2860.758, 3891.232 2996.500 C 3891.047 3099.232, 3891.294 3146.087, 3892.041 3149.689 C 3893.420 3156.340, 3896.093 3159.669, 3902.421 3162.616 C 3906.793 3164.651, 3909.042 3164.982, 3918.572 3164.990 C 3931.609 3165.002, 3937.188 3163.464, 3941.954 3158.548 C 3947.798 3152.518, 3947.967 3150.412, 3947.984 3083.250 L 3948 3023 4023 3023 L 4098 3023 4098 3079.276 C 4098 3135.100, 4098.659 3149.524, 4101.454 3154.895 C 4105.307 3162.298, 4112.253 3165.083, 4126.860 3165.083 C 4143.617 3165.083, 4151.047 3161.193, 4154.208 3150.763 C 4156.163 3144.313, 4156.101 2853.202, 4154.144 2847.664 C 4150.656 2837.795, 4143.255 2834, 4127.500 2834 C 4111.493 2834, 4102.921 2838.402, 4099.985 2848.132 C 4098.979 2851.465, 4098.572 2866.536, 4098.269 2911.750 L 4097.872 2971 4022.979 2971 L 3948.087 2971 3947.793 2910.250 C 3947.564 2862.847, 3947.212 2848.841, 3946.189 2846.500 C 3944.001 2841.494, 3938.935 2837.058, 3933.596 2835.473 C 3927.387 2833.629, 3911.073 2833.643, 3905.127 2835.498 M 4250.939 2835.365 C 4241.951 2837.789, 4237.997 2842.469, 4235.988 2853.063 C 4234.594 2860.412, 4234.664 3138.317, 4236.062 3147 C 4237.419 3155.434, 4240.164 3159.392, 4247 3162.777 L 4252.500 3165.500 4356 3165.500 C 4437.731 3165.500, 4460.397 3165.228, 4463.763 3164.208 C 4469.307 3162.528, 4474.383 3158, 4476.415 3152.921 C 4478.723 3147.153, 4479.477 3135.577, 4478.076 3127.420 C 4476.544 3118.499, 4473.282 3113.483, 4467.177 3110.662 C 4462.516 3108.507, 4462.210 3108.499, 4377.750 3108.218 L 4293 3107.935 4293 3065.468 L 4293 3023 4345.250 3022.973 C 4400.436 3022.944, 4414.008 3022.290, 4418.863 3019.422 C 4424.201 3016.269, 4426.393 3010.782, 4426.826 2999.494 C 4427.044 2993.804, 4426.714 2987.653, 4426.062 2985.231 C 4424.596 2979.785, 4419.856 2974.389, 4415.168 2972.826 C 4412.494 2971.935, 4395.435 2971.508, 4352.250 2971.251 L 4293 2970.898 4293 2930.976 L 4293 2891.054 4378.750 2890.777 C 4457.530 2890.523, 4464.754 2890.361, 4467.631 2888.786 C 4471.729 2886.542, 4475.505 2881.975, 4477.148 2877.275 C 4478.851 2872.403, 4478.827 2853.920, 4477.110 2848.036 C 4475.224 2841.570, 4469.812 2836.551, 4463.201 2835.135 C 4455.346 2833.453, 4257.234 2833.667, 4250.939 2835.365 M 5131.957 3383.518 C 5097.930 3389.265, 5070.119 3408.982, 5057.494 3436.307 C 5046.434 3460.244, 5046.736 3492.536, 5058.233 3515.500 C 5063.817 3526.652, 5074.882 3538.636, 5087 3546.655 C 5100.666 3555.699, 5114.639 3561.703, 5150.500 3573.942 C 5185.377 3585.845, 5196.199 3590.993, 5205.136 3599.929 C 5213.617 3608.410, 5215.517 3613.802, 5214.752 3627.222 C 5214.341 3634.421, 5213.681 3637.204, 5211.180 3642.277 C 5205.808 3653.172, 5195.440 3660.953, 5180.733 3665.126 C 5173.597 3667.151, 5170.302 3667.460, 5156 3667.448 C 5139.947 3667.435, 5139.278 3667.350, 5131.305 3664.307 C 5119.391 3659.761, 5113.568 3655.426, 5100.003 3641.004 C 5086.534 3626.683, 5080.990 3622.984, 5073.054 3623.022 C 5066.707 3623.053, 5060.932 3625.970, 5053.853 3632.720 C 5047.598 3638.685, 5043.726 3644.394, 5042.575 3649.346 C 5040.759 3657.159, 5051.257 3675.390, 5065.038 3688.353 C 5090.982 3712.760, 5122.640 3724.085, 5161 3722.683 C 5184.027 3721.841, 5201.734 3717.537, 5219.525 3708.459 C 5256.668 3689.507, 5274.890 3657.541, 5272.693 3615.193 C 5270.734 3577.452, 5252.738 3553.154, 5213.910 3535.828 C 5203.490 3531.179, 5197.397 3529.085, 5154.631 3515.458 C 5132.805 3508.504, 5122.611 3503.572, 5115.669 3496.610 C 5108.756 3489.676, 5106.670 3483.829, 5107.158 3472.745 C 5107.691 3460.618, 5112.542 3451.818, 5122.405 3445.089 C 5139.217 3433.618, 5171.435 3433.688, 5191.146 3445.240 C 5193.570 3446.660, 5198.828 3450.759, 5202.831 3454.348 C 5211.232 3461.882, 5217.288 3465.129, 5224.166 3465.790 C 5231.647 3466.509, 5236.782 3464.034, 5244.263 3456.104 C 5254.987 3444.736, 5258.182 3435.535, 5254.316 3427.151 C 5251.723 3421.526, 5234.590 3404.956, 5226.347 3400.101 C 5212.401 3391.886, 5195.682 3386.109, 5178.248 3383.481 C 5166.530 3381.715, 5142.519 3381.734, 5131.957 3383.518 M 5809.366 3383.383 C 5799.200 3386.672, 5785.596 3396.951, 5781.950 3404.098 C 5779.516 3408.870, 5779.487 3415.274, 5781.877 3420.535 C 5782.885 3422.755, 5808.300 3461.454, 5838.355 3506.534 L 5893 3588.498 5893 3642.613 C 5893 3674.680, 5893.409 3698.886, 5894.005 3702.025 C 5895.231 3708.490, 5898.739 3713.309, 5904.308 3716.178 C 5907.578 3717.863, 5910.826 3718.437, 5919.077 3718.790 C 5932.086 3719.347, 5939.353 3717.580, 5944.265 3712.668 C 5950.385 3706.548, 5950.338 3707.045, 5950.747 3644.641 L 5951.120 3587.783 6005.180 3506.141 C 6034.912 3461.239, 6060.085 3422.550, 6061.120 3420.167 C 6063.433 3414.836, 6063.535 3407.931, 6061.368 3403.364 C 6059.029 3398.433, 6049.657 3390.455, 6041.394 3386.360 C 6028.950 3380.193, 6020.503 3381.651, 6012.596 3391.331 C 6010.723 3393.624, 5989.548 3426.100, 5965.539 3463.500 C 5941.531 3500.900, 5921.575 3531.607, 5921.194 3531.739 C 5920.812 3531.870, 5903.652 3505.320, 5883.060 3472.739 C 5832.787 3393.197, 5829.961 3388.937, 5825.361 3385.759 C 5820.611 3382.477, 5814.822 3381.617, 5809.366 3383.383 M 3699 3384.693 C 3686.709 3386.004, 3664.155 3391.760, 3651.292 3396.869 C 3622.202 3408.424, 3592.391 3431.799, 3576.113 3455.816 C 3569.313 3465.850, 3559.546 3485.488, 3556.127 3496 C 3545.325 3529.214, 3545.691 3573.406, 3557.050 3607.308 C 3576.528 3665.446, 3626.109 3707.104, 3689.500 3718.593 C 3704.632 3721.335, 3732.806 3721.129, 3747.763 3718.166 C 3765.995 3714.554, 3780.485 3708.774, 3799.524 3697.518 C 3811.067 3690.693, 3818.659 3684.337, 3820.971 3679.559 C 3825.120 3670.990, 3822.763 3660.600, 3813.975 3648.715 C 3807.623 3640.123, 3801.421 3636, 3794.851 3636 C 3789.198 3636, 3787.291 3636.780, 3775.500 3643.910 C 3763.453 3651.196, 3751.732 3656.602, 3742.284 3659.229 C 3735.563 3661.099, 3731.838 3661.401, 3715 3661.441 C 3696.672 3661.485, 3694.902 3661.321, 3685.558 3658.716 C 3674.060 3655.512, 3660.020 3649.120, 3650.877 3642.929 C 3637.328 3633.753, 3622.659 3616.371, 3615.956 3601.548 C 3604.738 3576.740, 3602.793 3542.368, 3611.084 3515.442 C 3624.711 3471.186, 3666.007 3442, 3715 3442 C 3738.521 3442, 3754.873 3447.195, 3779.148 3462.380 C 3793.150 3471.139, 3799.502 3470.666, 3810.069 3460.081 C 3818.563 3451.571, 3823 3442.965, 3823 3434.998 C 3823 3426.481, 3820.082 3421.814, 3810.004 3414.212 C 3790.755 3399.692, 3764.902 3388.847, 3741.500 3385.477 C 3732.463 3384.175, 3708.075 3383.726, 3699 3384.693 M 4814 3385.096 C 4748.799 3392.373, 4693.393 3442.879, 4676.036 3510.858 C 4670.440 3532.778, 4669.196 3562.597, 4672.967 3584.431 C 4684.461 3650.969, 4736.556 3705.453, 4801.741 3719.107 C 4821.340 3723.212, 4849.170 3723.194, 4867.712 3719.064 C 4920.477 3707.311, 4965.155 3666.857, 4985.020 3612.847 C 4996.269 3582.263, 4998.119 3544.563, 4990.042 3510.500 C 4981.833 3475.879, 4959.802 3441.425, 4931.461 3418.886 C 4898.738 3392.862, 4855.602 3380.454, 4814 3385.096 M 3912.444 3387.130 C 3901.152 3388.141, 3894.612 3392.495, 3891.816 3400.866 C 3890.142 3405.876, 3889.415 3555.800, 3890.953 3578.850 C 3894.798 3636.485, 3919.923 3681.300, 3961.591 3704.847 C 3981.246 3715.955, 4002.035 3720.948, 4028.761 3720.982 C 4068.258 3721.032, 4099.403 3708.770, 4125.052 3683.071 C 4147.681 3660.398, 4161.804 3630.163, 4166.500 3594.338 C 4167.737 3584.902, 4167.996 3567.445, 4167.976 3494.699 C 4167.960 3438.719, 4167.581 3404.893, 4166.937 3402.100 C 4165.482 3395.790, 4162.433 3392.088, 4156.424 3389.337 C 4151.895 3387.263, 4149.669 3386.932, 4140.334 3386.941 C 4134.375 3386.947, 4127.962 3387.403, 4126.082 3387.954 C 4120.635 3389.552, 4115.468 3393.509, 4113.406 3397.661 C 4111.588 3401.322, 4111.470 3405.718, 4110.856 3492.500 C 4110.468 3547.345, 4109.805 3585.685, 4109.188 3589 C 4104.453 3614.455, 4098.046 3627.919, 4083.893 3642.161 C 4075.598 3650.507, 4070.159 3654.170, 4060 3658.246 C 4043.984 3664.674, 4019.370 3665.100, 4001.648 3659.257 C 3980.479 3652.277, 3963.150 3633.541, 3955.165 3609 C 3949.390 3591.255, 3949.707 3596.940, 3948.982 3498 C 3948.282 3402.509, 3948.202 3400.902, 3943.877 3394.827 C 3939.448 3388.607, 3927.804 3385.756, 3912.444 3387.130 M 5469.731 3387.032 C 5460.818 3388.094, 5457.094 3390.341, 5454.016 3396.517 C 5451.870 3400.824, 5451.533 3402.856, 5451.532 3411.500 C 5451.531 3417, 5452.095 3423.107, 5452.784 3425.072 C 5454.454 3429.831, 5459.578 3434.568, 5464.500 3435.903 C 5467.116 3436.613, 5485.190 3436.991, 5516.750 3436.994 L 5565 3437 5565 3567.451 C 5565 3660.987, 5565.321 3699.401, 5566.135 3703.201 C 5567.551 3709.811, 5572.570 3715.223, 5579.036 3717.111 C 5584.769 3718.785, 5602.372 3718.788, 5607.275 3717.116 C 5611.875 3715.547, 5616.575 3711.723, 5618.515 3707.971 C 5621.632 3701.943, 5621.984 3687.210, 5621.992 3562.250 L 5622 3437 5669.750 3436.994 C 5701.327 3436.991, 5718.839 3436.617, 5721.453 3435.891 C 5726.508 3434.488, 5731.488 3429.508, 5732.891 3424.453 C 5734.285 3419.434, 5734.314 3404.670, 5732.940 3399.723 C 5731.545 3394.701, 5726.696 3389.339, 5722.168 3387.811 C 5719.345 3386.859, 5690.623 3386.533, 5597.500 3386.399 C 5530.950 3386.304, 5473.454 3386.588, 5469.731 3387.032 M 4263.500 3387.935 C 4257.170 3389.476, 4251.805 3393.479, 4249.147 3398.643 C 4246.189 3404.390, 4245.886 3420.998, 4246.210 3559.500 C 4246.511 3688.357, 4246.673 3699.901, 4248.245 3704.540 C 4251.676 3714.667, 4258.302 3718, 4275 3718 C 4291.106 3718, 4297.009 3715.315, 4301.386 3706 C 4303.426 3701.657, 4303.511 3699.902, 4303.805 3655.750 L 4304.111 3610 4339.805 3610.009 L 4375.500 3610.019 4406.992 3657.759 C 4440.852 3709.089, 4445.987 3715.645, 4454.084 3717.894 C 4462.211 3720.151, 4472.844 3715.668, 4484.116 3705.232 C 4491.231 3698.645, 4493 3695.571, 4492.999 3689.800 C 4492.998 3683.116, 4489.279 3676.556, 4462.513 3636.027 C 4448.902 3615.417, 4437.575 3598.056, 4437.341 3597.447 C 4437.108 3596.839, 4440.332 3593.725, 4444.506 3590.528 C 4476.897 3565.719, 4492.878 3523.484, 4486.517 3479.500 C 4484.803 3467.647, 4482.939 3460.272, 4479.548 3451.927 C 4465.337 3416.951, 4434.395 3393.707, 4394.500 3388.035 C 4386.471 3386.893, 4268.149 3386.803, 4263.500 3387.935 M 4571.479 3388.394 C 4561.909 3391.392, 4558.559 3396.309, 4557.038 3409.583 C 4555.686 3421.384, 4555.664 3682.979, 4557.014 3695.792 C 4558.097 3706.074, 4559.464 3709.530, 4563.939 3713.295 C 4568.593 3717.211, 4573.530 3718.422, 4585 3718.459 C 4597.272 3718.499, 4602.835 3716.829, 4607.927 3711.576 C 4614.199 3705.105, 4613.967 3711.139, 4613.984 3553.582 C 4613.995 3454.902, 4613.663 3408.727, 4612.910 3404.407 C 4611.454 3396.046, 4607.006 3390.673, 4599.758 3388.521 C 4593.539 3386.674, 4577.202 3386.601, 4571.479 3388.394 M 5348.479 3388.394 C 5338.909 3391.392, 5335.559 3396.309, 5334.038 3409.583 C 5332.686 3421.384, 5332.664 3682.979, 5334.014 3695.792 C 5335.097 3706.074, 5336.464 3709.530, 5340.939 3713.295 C 5345.593 3717.211, 5350.530 3718.422, 5362 3718.459 C 5374.272 3718.499, 5379.835 3716.829, 5384.927 3711.576 C 5391.199 3705.105, 5390.967 3711.139, 5390.984 3553.582 C 5390.995 3454.902, 5390.663 3408.727, 5389.910 3404.407 C 5388.454 3396.046, 5384.006 3390.673, 5376.758 3388.521 C 5370.539 3386.674, 5354.202 3386.601, 5348.479 3388.394 M 4815.500 3443.407 C 4794.030 3447.575, 4772.412 3459.772, 4757.950 3475.878 C 4717.013 3521.466, 4718.798 3592.116, 4761.960 3634.585 C 4766.203 3638.759, 4772.560 3644.198, 4776.087 3646.671 C 4814.933 3673.906, 4867.232 3669.842, 4902.504 3636.847 C 4933.800 3607.571, 4945.408 3560.045, 4931.776 3517 C 4925.710 3497.845, 4912.516 3478.518, 4896.500 3465.326 C 4886.013 3456.688, 4869.756 3448.195, 4857.500 3444.951 C 4847.209 3442.228, 4825.655 3441.435, 4815.500 3443.407 M 4304 3498.394 L 4304 3553 4347.250 3552.988 C 4380.687 3552.979, 4391.668 3552.665, 4395.650 3551.605 C 4411.530 3547.377, 4423.795 3534.157, 4428.429 3516.276 C 4430.233 3509.313, 4430.529 3492.078, 4428.985 3483.886 C 4426.407 3470.210, 4416.294 3456.407, 4404.688 3450.724 C 4392.950 3444.976, 4390.997 3444.762, 4345.750 3444.255 L 4304 3443.787 4304 3498.394 M 2489.418 3583.278 C 2480.573 3591.650, 2450.424 3620.100, 2422.420 3646.500 C 2394.417 3672.900, 2362.761 3702.825, 2352.073 3713 C 2341.386 3723.175, 2324.510 3739.142, 2314.571 3748.481 C 2304.632 3757.821, 2272.425 3788.164, 2243 3815.909 C 2213.575 3843.655, 2189.301 3866.512, 2189.058 3866.703 C 2188.815 3866.894, 2189.126 3868.501, 2189.750 3870.275 C 2191.866 3876.297, 2234.086 3995.251, 2253.007 4048.500 C 2290.360 4153.622, 2315.174 4223.475, 2334 4276.500 C 2419.211 4516.501, 2413.573 4500.917, 2416.206 4503.719 C 2419.193 4506.899, 2419.884 4506.763, 2444.500 4498.157 C 2476.965 4486.807, 2525.601 4466.203, 2526.702 4463.333 C 2526.961 4462.659, 2522.452 4452.521, 2516.683 4440.804 C 2510.914 4429.087, 2476.728 4358.075, 2440.714 4283 C 2404.700 4207.925, 2369.283 4134.125, 2362.008 4119 C 2354.734 4103.875, 2341.449 4076.200, 2332.487 4057.500 C 2323.526 4038.800, 2312.626 4016.075, 2308.265 4007 C 2303.905 3997.925, 2288.296 3965.426, 2273.578 3934.779 L 2246.818 3879.059 2257.011 3869.279 C 2262.617 3863.901, 2267.720 3859.210, 2268.352 3858.855 C 2269.084 3858.443, 2276.254 3870.225, 2288.132 3891.355 C 2423.319 4131.842, 2501.362 4270.950, 2511.221 4289 C 2523.369 4311.239, 2568.765 4395.675, 2579.368 4415.750 C 2583.798 4424.137, 2587.768 4431, 2588.191 4431 C 2591.152 4431, 2670.645 4379.845, 2678.302 4373.012 C 2679.127 4372.275, 2674.413 4365.184, 2660.556 4346.317 C 2641.939 4320.967, 2631.194 4306.269, 2573.327 4227 C 2539.802 4181.075, 2475.074 4092.425, 2429.487 4030 C 2383.900 3967.575, 2333.829 3898.995, 2318.218 3877.600 L 2289.834 3838.700 2293.167 3835.542 C 2295 3833.805, 2300.406 3828.649, 2305.179 3824.084 L 2313.858 3815.783 2359.621 3873.142 C 2384.790 3904.689, 2414.884 3942.425, 2426.497 3957 C 2438.109 3971.575, 2507.890 4059.100, 2581.565 4151.500 C 2655.240 4243.900, 2718.367 4323.191, 2721.848 4327.703 L 2728.177 4335.906 2736.838 4329.007 C 2741.602 4325.212, 2746.834 4321.014, 2748.465 4319.676 L 2751.431 4317.245 2746.465 4311.268 C 2743.734 4307.981, 2728.652 4290.038, 2712.948 4271.396 C 2679.150 4231.271, 2621.344 4162.548, 2538.079 4063.500 C 2504.789 4023.900, 2442.765 3950.135, 2400.247 3899.578 L 2322.942 3807.655 2326.167 3804.328 C 2327.941 3802.497, 2329.713 3801, 2330.105 3801 C 2330.911 3801, 2453.585 3940.356, 2470.465 3960.448 C 2476.496 3967.627, 2505.533 4000.950, 2534.990 4034.500 C 2564.448 4068.050, 2596.844 4104.950, 2606.981 4116.500 C 2617.118 4128.050, 2631.901 4144.868, 2639.831 4153.873 C 2647.761 4162.878, 2675.204 4194.153, 2700.815 4223.373 C 2756.370 4286.757, 2768.777 4300.500, 2770.450 4300.500 C 2771.144 4300.500, 2776.550 4296.281, 2782.464 4291.125 L 2793.216 4281.751 2783.240 4271.625 C 2777.753 4266.056, 2718.428 4201.650, 2651.407 4128.500 C 2584.386 4055.350, 2487.352 3949.501, 2435.775 3893.279 C 2384.199 3837.058, 2342 3790.648, 2342 3790.146 C 2342 3789.644, 2343.912 3787.532, 2346.250 3785.453 C 2348.588 3783.374, 2353.607 3778.757, 2357.404 3775.194 L 2364.308 3768.715 2372.333 3777.108 C 2376.747 3781.723, 2398.412 3803.950, 2420.478 3826.500 C 2442.544 3849.050, 2520.201 3928.470, 2593.049 4002.988 C 2665.897 4077.507, 2748.825 4162.332, 2777.334 4191.488 C 2805.843 4220.645, 2829.857 4244.889, 2830.699 4245.364 C 2831.852 4246.015, 2834.264 4244.203, 2840.485 4238.015 L 2848.740 4229.803 2794.123 4175.651 C 2764.084 4145.868, 2715.880 4098.103, 2687.003 4069.506 C 2658.126 4040.910, 2610.875 3994.105, 2582 3965.496 C 2459.437 3844.061, 2425.073 3810.032, 2400.256 3785.519 L 2374.013 3759.596 2376.693 3756.798 C 2378.168 3755.259, 2379.748 3754, 2380.205 3754 C 2381.203 3754, 2477.060 3844.987, 2553.500 3918.491 C 2567.250 3931.712, 2589.075 3952.617, 2602 3964.945 C 2614.925 3977.273, 2630 3991.694, 2635.500 3996.992 C 2641 4002.289, 2682.850 4042.130, 2728.500 4085.527 C 2774.150 4128.923, 2820.950 4173.455, 2832.500 4184.486 C 2844.050 4195.516, 2856.047 4206.690, 2859.161 4209.316 L 2864.822 4214.091 2878.244 4200.295 C 2902.671 4175.190, 2935.174 4139.180, 2935.797 4136.535 C 2936.195 4134.846, 2915.962 4119.534, 2778.500 4017.485 C 2714.150 3969.713, 2618.075 3898.389, 2565 3858.987 C 2511.925 3819.585, 2453.200 3775.989, 2434.500 3762.106 C 2415.800 3748.224, 2400.379 3736.532, 2400.230 3736.124 C 2400.082 3735.716, 2406.073 3729.608, 2413.544 3722.550 L 2427.127 3709.718 2429.814 3711.685 C 2438.999 3718.413, 2887.845 4034.845, 2949.160 4077.819 C 2961.072 4086.169, 2971.197 4092.984, 2971.660 4092.965 C 2972.383 4092.935, 2980.080 4083.323, 2989.324 4070.906 L 2991.999 4067.312 2980.750 4060.445 C 2974.562 4056.667, 2941.150 4034.695, 2906.500 4011.618 C 2773.359 3922.943, 2492.224 3735.855, 2465.654 3718.246 C 2450.339 3708.096, 2438.189 3699.452, 2438.654 3699.036 C 2439.119 3698.621, 2445.037 3693.043, 2451.805 3686.641 C 2458.572 3680.238, 2464.477 3675, 2464.927 3675 C 2465.750 3675, 2479.980 3684.003, 2673.500 3806.958 C 2731.800 3843.999, 2815.050 3896.886, 2858.500 3924.484 C 2949.090 3982.023, 2953.193 3984.632, 2977.500 4000.144 C 2987.400 4006.462, 3000.225 4014.493, 3006 4017.991 C 3011.775 4021.488, 3017.483 4024.979, 3018.684 4025.747 C 3020.790 4027.094, 3021.194 4026.658, 3029.934 4013.598 C 3034.920 4006.148, 3039 3999.863, 3039 3999.632 C 3039 3999.400, 3034.387 3996.604, 3028.750 3993.418 C 3023.113 3990.232, 2991.275 3971.446, 2958 3951.672 C 2924.725 3931.898, 2802.775 3859.476, 2687 3790.735 C 2571.225 3721.993, 2476.291 3665.559, 2476.035 3665.327 C 2475.332 3664.687, 2477.361 3661.836, 2479.557 3660.378 C 2481.288 3659.229, 2484.102 3660.554, 2505.002 3672.357 C 2529.058 3685.944, 2567.558 3707.732, 2674 3767.997 C 2707.275 3786.837, 2741.475 3806.191, 2750 3811.007 C 2758.525 3815.822, 2782.375 3829.321, 2803 3841.005 C 2873.600 3880.998, 2990.918 3947.382, 3019.500 3963.510 C 3041.124 3975.712, 3050.693 3980.645, 3051.381 3979.945 C 3051.621 3979.700, 3054.820 3974.550, 3058.489 3968.500 C 3062.918 3961.197, 3064.880 3957.051, 3064.325 3956.165 C 3063.131 3954.255, 3067.623 3956.678, 2789 3807.727 C 2761.225 3792.878, 2729.050 3775.675, 2717.500 3769.497 C 2705.950 3763.319, 2669.725 3743.963, 2637 3726.483 C 2604.275 3709.004, 2558.600 3684.604, 2535.500 3672.263 C 2512.400 3659.922, 2493.277 3649.604, 2493.005 3649.334 C 2492.733 3649.064, 2497.111 3644.358, 2502.733 3638.875 C 2511.092 3630.723, 2513.279 3629.076, 2514.728 3629.838 C 2515.703 3630.351, 2576.800 3658.906, 2650.500 3693.295 C 2814.738 3769.929, 2787.549 3756.841, 2935.500 3830.484 C 3070.316 3897.589, 3090.871 3907.529, 3092.159 3906.241 C 3093.725 3904.675, 3108.091 3872.683, 3114.496 3856.500 C 3117.978 3847.700, 3122.881 3834.299, 3125.391 3826.720 C 3134.779 3798.368, 3137.226 3785.733, 3133.941 3782.563 C 3133.149 3781.798, 3123.093 3777.957, 3111.595 3774.028 C 3093.765 3767.936, 3008.191 3738.753, 2938.500 3714.999 C 2927.500 3711.249, 2869.450 3691.451, 2809.500 3671.003 C 2706.704 3635.941, 2593.830 3597.454, 2548 3581.838 C 2536.725 3577.996, 2523.069 3573.311, 2517.653 3571.427 C 2512.237 3569.542, 2507.287 3568.012, 2506.653 3568.028 C 2506.019 3568.043, 2498.263 3574.905, 2489.418 3583.278 M 3684 3938.096 C 3618.799 3945.373, 3563.393 3995.879, 3546.036 4063.858 C 3540.440 4085.778, 3539.196 4115.597, 3542.967 4137.431 C 3554.461 4203.971, 3606.509 4258.407, 3671.741 4272.113 C 3690.270 4276.007, 3716.514 4276.167, 3734.500 4272.498 C 3757.370 4267.831, 3783.954 4254.811, 3801.918 4239.478 C 3804.870 4236.957, 3807.865 4235.118, 3808.573 4235.390 C 3809.281 4235.661, 3819.254 4242.157, 3830.735 4249.823 C 3855.256 4266.197, 3860.878 4269.470, 3867.179 4271.038 C 3875.638 4273.142, 3883.035 4268.729, 3891.200 4256.706 C 3901.317 4241.807, 3901.766 4231.884, 3892.711 4223.258 C 3890.272 4220.935, 3868.123 4205.504, 3844.244 4189.493 C 3844.103 4189.398, 3846.191 4184.636, 3848.883 4178.911 C 3863.561 4147.700, 3868.399 4113.549, 3863.040 4079 C 3849.262 3990.191, 3770.763 3928.413, 3684 3938.096 M 4421 3938.096 C 4355.799 3945.373, 4300.393 3995.879, 4283.036 4063.858 C 4277.440 4085.778, 4276.196 4115.597, 4279.967 4137.431 C 4291.461 4203.969, 4343.556 4258.453, 4408.741 4272.107 C 4428.340 4276.212, 4456.170 4276.194, 4474.712 4272.064 C 4527.477 4260.311, 4572.155 4219.857, 4592.020 4165.847 C 4603.269 4135.263, 4605.119 4097.563, 4597.042 4063.500 C 4588.833 4028.879, 4566.802 3994.425, 4538.461 3971.886 C 4505.738 3945.862, 4462.602 3933.454, 4421 3938.096 M 3962.444 3940.130 C 3951.152 3941.141, 3944.612 3945.495, 3941.816 3953.866 C 3940.142 3958.876, 3939.415 4108.800, 3940.953 4131.850 C 3944.798 4189.485, 3969.923 4234.300, 4011.591 4257.847 C 4031.246 4268.955, 4052.035 4273.948, 4078.761 4273.982 C 4118.258 4274.032, 4149.403 4261.770, 4175.052 4236.071 C 4197.681 4213.398, 4211.804 4183.163, 4216.500 4147.338 C 4217.737 4137.902, 4217.996 4120.445, 4217.976 4047.699 C 4217.960 3991.719, 4217.581 3957.893, 4216.937 3955.100 C 4215.482 3948.790, 4212.433 3945.088, 4206.424 3942.337 C 4201.895 3940.263, 4199.669 3939.932, 4190.334 3939.941 C 4184.375 3939.947, 4177.962 3940.403, 4176.082 3940.954 C 4170.635 3942.552, 4165.468 3946.509, 4163.406 3950.661 C 4161.588 3954.322, 4161.470 3958.718, 4160.856 4045.500 C 4160.468 4100.345, 4159.805 4138.685, 4159.188 4142 C 4154.453 4167.455, 4148.046 4180.919, 4133.893 4195.161 C 4125.598 4203.507, 4120.159 4207.170, 4110 4211.246 C 4093.984 4217.674, 4069.370 4218.100, 4051.648 4212.257 C 4030.479 4205.277, 4013.150 4186.541, 4005.165 4162 C 3999.390 4144.255, 3999.707 4149.940, 3998.982 4051 C 3998.282 3955.509, 3998.202 3953.902, 3993.877 3947.827 C 3989.448 3941.607, 3977.804 3938.756, 3962.444 3940.130 M 4638.731 3940.032 C 4629.818 3941.094, 4626.094 3943.341, 4623.016 3949.517 C 4620.870 3953.824, 4620.533 3955.856, 4620.532 3964.500 C 4620.531 3970, 4621.095 3976.107, 4621.784 3978.072 C 4623.454 3982.831, 4628.578 3987.568, 4633.500 3988.903 C 4636.116 3989.613, 4654.190 3989.991, 4685.750 3989.994 L 4734 3990 4734 4120.451 C 4734 4213.987, 4734.321 4252.401, 4735.135 4256.201 C 4736.551 4262.811, 4741.570 4268.223, 4748.036 4270.111 C 4753.769 4271.785, 4771.372 4271.788, 4776.275 4270.116 C 4780.875 4268.547, 4785.575 4264.723, 4787.515 4260.971 C 4790.632 4254.943, 4790.984 4240.210, 4790.992 4115.250 L 4791 3990 4838.750 3989.994 C 4870.327 3989.991, 4887.839 3989.617, 4890.453 3988.891 C 4895.508 3987.488, 4900.488 3982.508, 4901.891 3977.453 C 4903.285 3972.434, 4903.314 3957.670, 4901.940 3952.723 C 4900.545 3947.701, 4895.696 3942.339, 4891.168 3940.811 C 4888.345 3939.859, 4859.623 3939.533, 4766.500 3939.399 C 4699.950 3939.304, 4642.454 3939.588, 4638.731 3940.032 M 5765.731 3940.032 C 5756.818 3941.094, 5753.094 3943.341, 5750.016 3949.517 C 5747.870 3953.824, 5747.533 3955.856, 5747.532 3964.500 C 5747.531 3970, 5748.095 3976.107, 5748.784 3978.072 C 5750.454 3982.831, 5755.578 3987.568, 5760.500 3988.903 C 5763.116 3989.613, 5781.190 3989.991, 5812.750 3989.994 L 5861 3990 5861 4120.451 C 5861 4213.987, 5861.321 4252.401, 5862.135 4256.201 C 5863.551 4262.811, 5868.570 4268.223, 5875.036 4270.111 C 5880.769 4271.785, 5898.372 4271.788, 5903.275 4270.116 C 5907.875 4268.547, 5912.575 4264.723, 5914.515 4260.971 C 5917.632 4254.943, 5917.984 4240.210, 5917.992 4115.250 L 5918 3990 5965.750 3989.994 C 5997.327 3989.991, 6014.839 3989.617, 6017.453 3988.891 C 6022.508 3987.488, 6027.488 3982.508, 6028.891 3977.453 C 6030.285 3972.434, 6030.314 3957.670, 6028.940 3952.723 C 6027.545 3947.701, 6022.696 3942.339, 6018.168 3940.811 C 6015.345 3939.859, 5986.623 3939.533, 5893.500 3939.399 C 5826.950 3939.304, 5769.454 3939.588, 5765.731 3940.032 M 4978.479 3941.394 C 4968.909 3944.392, 4965.559 3949.309, 4964.038 3962.583 C 4962.686 3974.384, 4962.664 4235.979, 4964.014 4248.792 C 4965.097 4259.074, 4966.464 4262.530, 4970.939 4266.295 C 4975.593 4270.211, 4980.530 4271.422, 4992 4271.459 C 5004.272 4271.499, 5009.835 4269.829, 5014.927 4264.576 C 5021.199 4258.105, 5020.967 4264.139, 5020.984 4106.582 C 5020.995 4007.902, 5020.663 3961.727, 5019.910 3957.407 C 5018.454 3949.046, 5014.006 3943.673, 5006.758 3941.521 C 5000.539 3939.674, 4984.202 3939.601, 4978.479 3941.394 M 5112.939 3941.365 C 5103.951 3943.789, 5099.997 3948.469, 5097.988 3959.063 C 5096.594 3966.412, 5096.664 4244.317, 5098.062 4253 C 5099.419 4261.434, 5102.164 4265.392, 5109 4268.777 L 5114.500 4271.500 5218 4271.500 C 5299.731 4271.500, 5322.397 4271.228, 5325.763 4270.208 C 5331.307 4268.528, 5336.383 4264, 5338.415 4258.921 C 5340.723 4253.153, 5341.477 4241.577, 5340.076 4233.420 C 5338.544 4224.499, 5335.282 4219.483, 5329.177 4216.662 C 5324.516 4214.507, 5324.210 4214.499, 5239.750 4214.218 L 5155 4213.935 5155 4171.468 L 5155 4129 5207.250 4128.973 C 5262.436 4128.944, 5276.008 4128.290, 5280.863 4125.422 C 5286.201 4122.269, 5288.393 4116.782, 5288.826 4105.494 C 5289.044 4099.804, 5288.714 4093.653, 5288.062 4091.231 C 5286.596 4085.785, 5281.856 4080.389, 5277.168 4078.826 C 5274.494 4077.935, 5257.435 4077.508, 5214.250 4077.251 L 5155 4076.898 5155 4036.976 L 5155 3997.054 5240.750 3996.777 C 5319.530 3996.523, 5326.754 3996.361, 5329.631 3994.786 C 5333.729 3992.542, 5337.505 3987.975, 5339.148 3983.275 C 5340.851 3978.403, 5340.827 3959.920, 5339.110 3954.036 C 5337.224 3947.570, 5331.812 3942.551, 5325.201 3941.135 C 5317.346 3939.453, 5119.234 3939.667, 5112.939 3941.365 M 5422.810 3941.338 C 5416.052 3943.244, 5411.294 3946.847, 5408.735 3952 L 5406.500 3956.500 5406.500 4105.500 L 5406.500 4254.500 5408.631 4259.108 C 5412.918 4268.378, 5420.185 4271.427, 5436.607 4270.845 C 5445.899 4270.516, 5448.156 4270.095, 5451.961 4267.980 C 5457.385 4264.965, 5460.497 4260.572, 5461.925 4253.914 C 5462.653 4250.521, 5463 4215.251, 5463 4144.736 C 5463 4055.041, 5463.196 4040.775, 5464.411 4042.036 C 5465.187 4042.841, 5501.225 4092.325, 5544.495 4152 C 5587.764 4211.675, 5625.133 4262.354, 5627.536 4264.619 C 5632.977 4269.750, 5637.893 4271.083, 5651.364 4271.083 C 5666.296 4271.083, 5673.891 4267.861, 5678.273 4259.666 L 5680.500 4255.500 5680.768 4108.500 C 5680.957 4004.421, 5680.714 3959.950, 5679.934 3956.190 C 5678.597 3949.738, 5674.625 3944.877, 5668.737 3942.486 C 5662.494 3939.950, 5648.902 3939.394, 5641.231 3941.361 C 5633.379 3943.374, 5629.613 3946.125, 5626.747 3951.940 L 5624.500 3956.500 5624 4064.633 L 5623.500 4172.767 5544.114 4061.877 C 5500.452 4000.888, 5462.940 3949.372, 5460.754 3947.397 C 5458.568 3945.422, 5455.141 3943.103, 5453.140 3942.243 C 5448.211 3940.127, 5429.123 3939.558, 5422.810 3941.338 M 3685.500 3996.397 C 3643.258 4004.541, 3610.365 4037.772, 3600.768 4082 C 3598.332 4093.224, 3597.883 4116.595, 3599.904 4126.956 C 3604.389 4149.954, 3615.460 4171.299, 3630.923 4186.762 C 3653.888 4209.727, 3682.491 4220.283, 3713.076 4217.080 C 3763.806 4211.769, 3802.714 4170.084, 3806.957 4116.500 C 3810.017 4077.857, 3795.239 4041.998, 3766.500 4018.326 C 3756.013 4009.688, 3739.756 4001.195, 3727.500 3997.951 C 3717.235 3995.235, 3695.670 3994.437, 3685.500 3996.397 M 4422.500 3996.407 C 4401.030 4000.575, 4379.412 4012.772, 4364.950 4028.878 C 4324.013 4074.466, 4325.798 4145.116, 4368.960 4187.585 C 4373.203 4191.759, 4379.560 4197.198, 4383.087 4199.671 C 4421.933 4226.906, 4474.232 4222.842, 4509.504 4189.847 C 4540.800 4160.571, 4552.408 4113.045, 4538.776 4070 C 4532.710 4050.845, 4519.516 4031.518, 4503.500 4018.326 C 4493.013 4009.688, 4476.756 4001.195, 4464.500 3997.951 C 4454.209 3995.228, 4432.655 3994.435, 4422.500 3996.407" stroke="none" fill="#F0EAE2" fill-rule="evenodd"/>
</svg>